<svg id="레이어_1" data-name="레이어 1" xmlns="http://www.w3.org/2000/svg" xmlns:xlink="http://www.w3.org/1999/xlink" viewBox="0 0 157.57 44.03"><defs><style>.cls-1{fill:none;}.cls-2{clip-path:url(#clip-path);}.cls-3{fill:#ed6f2d;}</style><clipPath id="clip-path" transform="translate(-3.72 -5.49)"><rect class="cls-1" width="165" height="55"/></clipPath></defs><title>golfgogo_logo</title><g class="cls-2"><path class="cls-3" d="M23.21,39.65l1.6-6H15.36l-.7,2.64h5.66l-1,3.72a4.7,4.7,0,0,1-1.55,2.47,3.86,3.86,0,0,1-2.53,1H11.48a2.25,2.25,0,0,1-2-1A3,3,0,0,1,9.22,40l3.14-11.83a4.79,4.79,0,0,1,1.55-2.47,3.83,3.83,0,0,1,2.54-1h3.76a2.25,2.25,0,0,1,2,1,3,3,0,0,1,.23,2.47l-.41,1.53h3.8l.33-1.22a9.78,9.78,0,0,1,1.63-3.5,3.37,3.37,0,0,0-.45-1.08c-.68-1.05-1.95-1.57-3.8-1.57H14.34A6.94,6.94,0,0,0,9.7,23.86,8.66,8.66,0,0,0,7,28.44l-3,11.21c-.54,2-.46,3.53.22,4.57s2,1.57,3.81,1.57h9.23A6.67,6.67,0,0,0,23,43.14a7.31,7.31,0,0,1,.22-3.49" transform="translate(-3.72 -5.49)"/><path class="cls-3" d="M68.21,22.32H82l-.74,2.76H70.65L68.56,33H78.64l-.73,2.76H67.83l-2.62,9.86H60.06l5.6-21.1a2.5,2.5,0,0,1,2.55-2.15" transform="translate(-3.72 -5.49)"/><path class="cls-3" d="M157.44,39.57l3-11.21a11.61,11.61,0,0,1,.87-2.29,4,4,0,0,0-.57-2.29c-.68-1-2-1.57-3.8-1.57h-9.23A7,7,0,0,0,143,23.78a8.76,8.76,0,0,0-2.66,4.58l-3,11.21c-.54,2-.46,3.53.22,4.58s2,1.56,3.81,1.56h9.23a7,7,0,0,0,4.64-1.56,7.48,7.48,0,0,0,1.78-2.29,9.32,9.32,0,0,1,.35-2.29m-1.63-11.52-3.14,11.83a4.66,4.66,0,0,1-1.55,2.47,3.81,3.81,0,0,1-2.53,1h-3.77a2.23,2.23,0,0,1-2-1,3,3,0,0,1-.24-2.47l3.14-11.83a4.72,4.72,0,0,1,1.55-2.47,3.83,3.83,0,0,1,2.54-1h3.76a2.25,2.25,0,0,1,2,1,3,3,0,0,1,.23,2.47" transform="translate(-3.72 -5.49)"/><polygon class="cls-3" points="49.34 16.97 43.99 37.15 56.36 37.15 55.63 39.91 38.1 39.91 44.19 16.97 49.34 16.97"/><path class="cls-3" d="M46.9,23.48a4.57,4.57,0,0,0-3.48-1.17H34.18a6.91,6.91,0,0,0-4.63,1.57,8.67,8.67,0,0,0-2.66,4.57l-3,11.22c-.53,2-.45,3.53.23,4.57s2,1.57,3.81,1.57h9.23a7.09,7.09,0,0,0,4.1-1.17Zm-9.27,19a3.86,3.86,0,0,1-2.54,1H31.33a2.24,2.24,0,0,1-2-1A3,3,0,0,1,29.07,40l3.14-11.82a4.75,4.75,0,0,1,1.55-2.48,3.85,3.85,0,0,1,2.54-1h3.76a2.23,2.23,0,0,1,2,1,3,3,0,0,1,.24,2.48L39.18,40a4.75,4.75,0,0,1-1.55,2.48" transform="translate(-3.72 -5.49)"/><path class="cls-3" d="M96.52,41.52v-.05c0-.24,0-.5.09-.77a1.77,1.77,0,0,1,0-.2,8.87,8.87,0,0,1,.2-.91l1.6-6.05H89l-.7,2.64H94L93,39.9a4.66,4.66,0,0,1-1.55,2.47,3.81,3.81,0,0,1-2.53,1H85.12a2.23,2.23,0,0,1-2-1,3,3,0,0,1-.24-2.47L86,28.07a4.79,4.79,0,0,1,1.55-2.47,3.83,3.83,0,0,1,2.54-1h3.76a2.25,2.25,0,0,1,2,1,3,3,0,0,1,.23,2.47l-.4,1.54H99.5l.33-1.23c.08-.32.18-.62.28-.92l.07-.19a7.73,7.73,0,0,1,.32-.77s0,0,0-.06a8.75,8.75,0,0,1,.94-1.55A3.43,3.43,0,0,0,101,23.8c-.68-1-2-1.57-3.8-1.57H88a7,7,0,0,0-4.64,1.57,8.7,8.7,0,0,0-2.66,4.58l-3,11.21c-.54,2-.46,3.53.22,4.58s2,1.56,3.81,1.56H91a7,7,0,0,0,4.64-1.56,7.07,7.07,0,0,0,1-1.09,5.17,5.17,0,0,1-.11-1.56" transform="translate(-3.72 -5.49)"/><path class="cls-3" d="M116.75,39.61l3-11.21a9.78,9.78,0,0,1,1.63-3.5,3.47,3.47,0,0,0-.45-1.08c-.68-1.05-2-1.57-3.8-1.57h-9.23a6.94,6.94,0,0,0-4.64,1.57,8.73,8.73,0,0,0-2.66,4.58l-3,11.21c-.54,2-.46,3.53.22,4.58s2,1.56,3.81,1.56h9.23a7,7,0,0,0,4.64-1.56,7.56,7.56,0,0,0,1-1.09,7.31,7.31,0,0,1,.22-3.49M116,28.09l-3.14,11.83a4.7,4.7,0,0,1-1.55,2.47,3.86,3.86,0,0,1-2.53,1H105a2.25,2.25,0,0,1-2-1,3,3,0,0,1-.24-2.47l3.14-11.83a4.79,4.79,0,0,1,1.55-2.47,3.83,3.83,0,0,1,2.54-1h3.76a2.25,2.25,0,0,1,2,1,3,3,0,0,1,.23,2.47" transform="translate(-3.72 -5.49)"/><path class="cls-3" d="M136.65,39.51l1.6-6H128.8l-.7,2.64h5.66l-1,3.72a4.66,4.66,0,0,1-1.55,2.47,3.81,3.81,0,0,1-2.53,1h-3.77a2.23,2.23,0,0,1-2-1,3,3,0,0,1-.24-2.47L125.8,28a4.83,4.83,0,0,1,1.55-2.47,3.88,3.88,0,0,1,2.54-1h3.76a2.27,2.27,0,0,1,2,1,3,3,0,0,1,.23,2.47l-.41,1.54h3.8l.33-1.23a9.65,9.65,0,0,1,1.63-3.49,3.53,3.53,0,0,0-.45-1.09c-.68-1-1.95-1.56-3.8-1.56h-9.23a7,7,0,0,0-4.64,1.56,8.76,8.76,0,0,0-2.66,4.58l-3,11.21c-.54,2-.46,3.54.22,4.58s2,1.57,3.81,1.57h9.23a7,7,0,0,0,4.64-1.57,7.07,7.07,0,0,0,1-1.09,7.31,7.31,0,0,1,.22-3.49" transform="translate(-3.72 -5.49)"/><path class="cls-3" d="M70.33,5.49l-4.2,15.82a18.79,18.79,0,0,0,10.73-3.6A24.4,24.4,0,0,1,89.3,13.4,12.53,12.53,0,0,0,78.73,9.62c-6.61.83-8.4-4.13-8.4-4.13" transform="translate(-3.72 -5.49)"/><path class="cls-3" d="M66.43,46.81c0,1.49-1.72,2.7-3.83,2.7s-3.84-1.21-3.84-2.7" transform="translate(-3.72 -5.49)"/></g></svg>